<svg id="SvgjsSvg1001" width="288" height="288" xmlns="http://www.w3.org/2000/svg" version="1.1" xmlns:xlink="http://www.w3.org/1999/xlink" xmlns:svgjs="http://svgjs.com/svgjs"><defs id="SvgjsDefs1002"></defs><g id="SvgjsG1008" transform="matrix(1,0,0,1,0,0)"><svg xmlns="http://www.w3.org/2000/svg" class="icon" viewBox="0 0 24 24" width="288" height="288"><path d="M2.8 15.3v3.5S6.4 22 12 22s9.2-3.2 9.2-3.2v-3.5s-5.2-3.1-9.2-6c-4 2.9-9.2 6-9.2 6zM18.2 17c-2.9 1.5-6.2 1.4-6.2 1.4s-3.3.1-6.2-1.4c1.9-1.1 4.3-2.7 6.2-4.1 2 1.4 4.4 3 6.2 4.1z" fill="#ffffff" class="color000 svgShape"></path><path d="M12 2C8 4.9 2.8 8 2.8 8v3.5S8.2 8.3 12 5.6c3.8 2.7 9.2 5.9 9.2 5.9V8S16 4.9 12 2z" fill="#ffffff" class="color000 svgShape"></path></svg></g></svg>