<svg id="SvgjsSvg1001" width="288" height="288" xmlns="http://www.w3.org/2000/svg" version="1.1" xmlns:xlink="http://www.w3.org/1999/xlink" xmlns:svgjs="http://svgjs.com/svgjs"><defs id="SvgjsDefs1002"></defs><g id="SvgjsG1008" transform="matrix(1,0,0,1,0,0)"><svg xmlns="http://www.w3.org/2000/svg" width="288" height="288" version="1.0" viewBox="0 0 1000 1034"><g transform="matrix(.1 0 0 -.1 0 1034)" fill="#ffffff" class="color000 svgShape" data-darkreader-inline-fill="" style="--darkreader-inline-fill:#181a1b;"><path d="M590 5165l0-5170 680 680 680 680 0 3810 0 3810-680 680-680 680 0-5170zM8857 9692l-637-637 0-3890 0-3890 640-640 640-640 0 5168c0 2842-1 5167-3 5167-1 0-289-287-640-638zM6353 7388l-1313-1313-1270 1270-1270 1270 0-905 0-905 817-817 818-818-818-818-817-817 0-810 0-810 2585 2585 2585 2585-2 808-3 807-1312-1312zM5742 4467l-452-452 1190-1190 1190-1190 0 905 0 905-738 738-737 737-453-453z" fill="#ffffff" class="color000 svgShape" data-darkreader-inline-fill="" style="--darkreader-inline-fill:#181a1b;"></path></g></svg></g></svg>