<?xml version="1.0" standalone="no"?>
<!DOCTYPE svg PUBLIC "-//W3C//DTD SVG 20010904//EN"
 "http://www.w3.org/TR/2001/REC-SVG-20010904/DTD/svg10.dtd">
<svg version="1.0" xmlns="http://www.w3.org/2000/svg"
 width="1000.000000pt" height="1034.000000pt" viewBox="0 0 1000.000000 1034.000000"
 preserveAspectRatio="xMidYMid meet">

<g transform="translate(0.000000,1034.000000) scale(0.100000,-0.100000)"
fill="#000000" stroke="none">
<path d="M590 5165 l0 -5170 680 680 680 680 0 3810 0 3810 -680 680 -680 680
0 -5170z"/>
<path d="M8857 9692 l-637 -637 0 -3890 0 -3890 640 -640 640 -640 0 5168 c0
2842 -1 5167 -3 5167 -1 0 -289 -287 -640 -638z"/>
<path d="M6353 7388 l-1313 -1313 -1270 1270 -1270 1270 0 -905 0 -905 817
-817 818 -818 -818 -818 -817 -817 0 -810 0 -810 2585 2585 2585 2585 -2 808
-3 807 -1312 -1312z"/>
<path d="M5742 4467 l-452 -452 1190 -1190 1190 -1190 0 905 0 905 -738 738
-737 737 -453 -453z"/>
</g>
</svg>
